<svg xmlns="http://www.w3.org/2000/svg" viewBox="0 0 942 198" width="942" height="198" role="img" aria-label="O modelo alterado é mutado um operador por vez; seus unit tests rodam uma vez contra todo mutante; um mutante em que um unit test falha morre, um sobrevivente bloqueia o pull request, e um que um humano listou como equivalente informa" font-family='"SFMono-Regular",Menlo,Consolas,"Liberation Mono",monospace'>
<title>O modelo alterado é mutado um operador por vez; seus unit tests rodam uma vez contra todo mutante; um mutante em que um unit test falha morre, um sobrevivente bloqueia o pull request, e um que um humano listou como equivalente informa</title>
<rect width="942" height="198" fill="#0d1117"/>

<text x="1" y="12" font-size="10" letter-spacing="2" fill="#e6edf3" opacity=".55">ETAPA D · O MUTATION CHECK</text>
<rect x="1" y="48" width="150" height="72" fill="none" stroke="#e6edf3" stroke-width="1.6" opacity=".8"/><text x="13" y="72" font-size="12.5" font-weight="600" fill="#e6edf3">fct_orders</text><text x="13" y="92" font-size="9.5" fill="#8b949e">o sql que este pull</text><text x="13" y="105" font-size="9.5" fill="#8b949e">request alterou</text>
<path d="M159 84h26M179 78l6 6-6 6" fill="none" stroke="#8b949e" stroke-width="1.4" stroke-linecap="round" stroke-linejoin="round"/>
<text x="193" y="44" font-size="9.5" letter-spacing="1.4" fill="#D9A441">MUTADO, UM OPERADOR POR VEZ</text>
<rect x="193" y="56" width="62" height="24" fill="none" stroke="#D9A441" stroke-width="1.4" stroke-dasharray="4 3"/><text x="224" y="72" text-anchor="middle" font-size="10" fill="#D9A441">cmp</text><rect x="261" y="56" width="62" height="24" fill="none" stroke="#D9A441" stroke-width="1.4" stroke-dasharray="4 3"/><text x="292" y="72" text-anchor="middle" font-size="10" fill="#D9A441">where</text><rect x="329" y="56" width="62" height="24" fill="none" stroke="#D9A441" stroke-width="1.4" stroke-dasharray="4 3"/><text x="360" y="72" text-anchor="middle" font-size="10" fill="#D9A441">agg</text><rect x="397" y="56" width="62" height="24" fill="none" stroke="#D9A441" stroke-width="1.4" stroke-dasharray="4 3"/><text x="428" y="72" text-anchor="middle" font-size="10" fill="#D9A441">join</text><rect x="193" y="88" width="62" height="24" fill="none" stroke="#D9A441" stroke-width="1.4" stroke-dasharray="4 3"/><text x="224" y="104" text-anchor="middle" font-size="10" fill="#D9A441">coalesce</text><rect x="261" y="88" width="62" height="24" fill="none" stroke="#D9A441" stroke-width="1.4" stroke-dasharray="4 3"/><text x="292" y="104" text-anchor="middle" font-size="10" fill="#D9A441">distinct</text><rect x="329" y="88" width="62" height="24" fill="none" stroke="#D9A441" stroke-width="1.4" stroke-dasharray="4 3"/><text x="360" y="104" text-anchor="middle" font-size="10" fill="#D9A441">literal</text><rect x="397" y="88" width="62" height="24" fill="none" stroke="#D9A441" stroke-width="1.4" stroke-dasharray="4 3"/><text x="428" y="104" text-anchor="middle" font-size="10" fill="#D9A441">not</text>
<path d="M467 84h26M487 78l6 6-6 6" fill="none" stroke="#8b949e" stroke-width="1.4" stroke-linecap="round" stroke-linejoin="round"/>
<rect x="501" y="48" width="150" height="72" fill="none" stroke="#e6edf3" stroke-width="1.6" opacity=".8"/><text x="513" y="72" font-size="12.5" font-weight="600" fill="#e6edf3">os unit tests</text><text x="513" y="92" font-size="9.5" fill="#8b949e">rodam uma vez sobre o</text><text x="513" y="105" font-size="9.5" fill="#8b949e">given, sem ler tabela</text>
<path d="M659 84h26M679 78l6 6-6 6" fill="none" stroke="#8b949e" stroke-width="1.4" stroke-linecap="round" stroke-linejoin="round"/>
<path d="M693 61l4 4 8-9" fill="none" stroke="#4FBE8F" stroke-width="2" stroke-linecap="round" stroke-linejoin="round"/><text x="713" y="66" font-size="10.5" fill="#4FBE8F">um unit test falhou nele: morto</text><path d="M694 79l10 10M704 79l-10 10" fill="none" stroke="#E58174" stroke-width="2" stroke-linecap="round"/><text x="713" y="88" font-size="10.5" fill="#E58174">todo unit test passou: sobreviveu</text><path d="M693 106h11" fill="none" stroke="#8b949e" stroke-width="2" stroke-linecap="round"/><text x="713" y="110" font-size="10.5" fill="#8b949e">listado como equivalente: informa</text>
<rect x="1" y="140" width="124" height="26" fill="none" stroke="#E58174" stroke-width="1.6"/>
<text x="63" y="158" text-anchor="middle" font-size="11.5" font-weight="600" letter-spacing="1.2" fill="#E58174">PR BLOQUEADO</text>
<text x="143" y="158" font-size="10.5" fill="#e6edf3" opacity=".75">um sobrevivente bloqueia; um modelo alterado sem unit test também bloqueia</text>
<text x="1" y="190" font-size="9.5" fill="#8b949e">nada é escaneado: toda entrada é simulada, então a query compilada não lê tabela</text>
</svg>
